<?xml version="1.0" standalone="no"?>
<!DOCTYPE svg PUBLIC "-//W3C//DTD SVG 20010904//EN"
 "http://www.w3.org/TR/2001/REC-SVG-20010904/DTD/svg10.dtd">
<svg version="1.0" xmlns="http://www.w3.org/2000/svg"
 width="1400.000000pt" height="1400.000000pt" viewBox="0 0 1400.000000 1400.000000"
 preserveAspectRatio="xMidYMid meet">
<metadata>
Created by potrace 1.11, written by Peter Selinger 2001-2013
</metadata>
<g transform="translate(0.000000,1400.000000) scale(0.100000,-0.100000)"
fill="#000000" stroke="none">
<path d="M6335 12319 c-573 -41 -1153 -195 -1670 -443 -830 -399 -1547 -1065
-2005 -1865 -329 -573 -516 -1159 -592 -1846 -20 -186 -17 -762 5 -945 73
-589 228 -1106 478 -1597 451 -883 1187 -1608 2074 -2043 583 -287 1177 -438
1839 -470 l194 -9 1288 -605 c709 -332 1336 -627 1393 -654 l103 -50 -108 -6
c-506 -30 -777 -79 -818 -149 -23 -39 53 -77 218 -111 391 -81 1281 -87 1721
-11 423 73 359 177 -147 240 -66 8 -223 20 -349 27 l-229 12 -26 55 c-25 54
-802 1795 -811 1817 -2 6 58 48 134 94 1290 772 2120 2118 2234 3620 15 197 6
667 -15 850 -77 647 -281 1265 -598 1806 -836 1430 -2364 2304 -4008 2293
-107 -1 -244 -5 -305 -10z m330 -494 c425 -57 761 -156 1128 -335 117 -57 130
-61 159 -51 96 34 254 -64 493 -304 207 -207 291 -327 266 -381 -32 -72 -314
16 -516 161 -99 72 -105 74 -105 42 0 -17 -7 -28 -20 -32 -11 -3 -20 -13 -20
-21 0 -8 -3 -14 -7 -14 -14 0 -31 -49 -26 -70 4 -14 0 -20 -11 -20 -9 0 -13
-6 -10 -14 3 -8 -3 -16 -16 -19 -12 -3 -24 -15 -27 -26 -3 -12 -9 -21 -14 -21
-5 0 -9 -7 -9 -16 0 -12 9 -8 35 15 48 42 99 66 169 81 227 47 583 -142 948
-502 188 -187 271 -311 393 -591 26 -60 45 -110 43 -113 -3 -2 -66 17 -142 42
-75 25 -139 44 -142 42 -2 -3 12 -72 32 -154 44 -184 87 -437 111 -654 22
-206 25 -776 5 -970 -40 -382 -109 -739 -202 -1040 l-20 -64 24 -26 c35 -38
46 -64 46 -113 0 -75 -50 -158 -160 -267 -71 -70 -103 -110 -123 -154 -15 -32
-27 -60 -27 -62 0 -2 22 -4 49 -4 126 0 161 -53 102 -155 -38 -67 -197 -250
-305 -352 -231 -219 -545 -435 -930 -640 -104 -56 -109 -60 -126 -106 -10 -26
-16 -47 -14 -47 2 0 67 31 143 69 411 206 740 432 999 685 203 198 322 349
322 409 0 21 19 51 73 115 179 213 365 476 497 706 40 69 74 126 76 126 5 0
-33 -102 -83 -219 -521 -1224 -1662 -2087 -2986 -2256 -367 -47 -804 -34
-1168 33 l-91 17 338 0 c365 0 464 7 752 56 214 35 415 84 619 150 174 57 422
154 439 172 14 15 106 248 101 254 -3 2 -59 -14 -126 -37 -754 -252 -1517
-311 -2258 -175 -160 30 -378 84 -499 125 -46 16 -84 26 -84 22 0 -4 14 -43
30 -85 17 -43 30 -81 30 -83 0 -3 -82 37 -183 89 -503 259 -879 534 -1129 825
-161 187 -194 257 -145 305 35 36 101 44 210 26 86 -15 87 -15 81 6 -8 25 1
17 -68 58 -153 92 -305 239 -352 342 -30 63 -31 136 -4 179 32 53 92 79 190
84 l85 4 -11 92 c-7 50 -20 202 -30 339 -10 136 -22 247 -27 247 -4 0 -5 5 -2
11 4 6 -3 21 -16 35 -14 15 -17 24 -10 24 11 0 11 3 0 18 -11 14 -11 15 1 5 8
-7 20 -13 28 -13 12 0 12 3 2 15 -9 10 -9 15 -1 15 18 0 13 38 -6 49 -17 10
-17 10 0 11 10 0 15 5 12 10 -4 6 -15 8 -26 5 -11 -4 -19 -2 -19 4 0 6 5 11
11 11 8 0 8 5 -1 15 -9 11 -9 15 -1 15 7 0 9 5 6 10 -4 6 -15 8 -24 5 -16 -5
-19 7 -12 44 1 2 11 -4 23 -15 16 -13 19 -14 10 -2 -10 13 -10 17 0 21 7 3 3
6 -9 6 -22 1 -44 21 -22 21 9 0 9 3 0 14 -9 11 -9 15 1 19 12 5 -5 8 -54 12
-10 0 -27 11 -38 23 -23 24 -38 27 -60 11 -12 -9 -12 -10 4 -5 19 7 66 -17 66
-33 0 -12 -39 -21 -45 -11 -3 5 3 10 12 13 13 3 8 7 -14 12 -34 8 -67 35 -43
35 10 0 10 3 1 14 -7 8 -8 17 -3 20 6 3 15 -1 22 -9 7 -8 21 -15 32 -15 16 0
18 3 9 13 -6 8 -8 16 -5 19 11 12 -57 20 -70 9 -11 -9 -19 -6 -36 16 -12 15
-27 28 -33 29 -7 0 -23 2 -37 3 -14 2 -19 5 -12 8 10 4 10 8 1 19 -9 11 -8 14
2 14 26 0 -26 40 -57 43 -16 2 -35 7 -42 11 -7 4 -16 5 -21 1 -5 -3 -12 -1
-16 5 -3 5 -1 10 5 10 8 0 8 6 0 20 -6 11 -18 20 -26 20 -9 0 -22 7 -31 16 -9
8 -21 13 -28 11 -15 -6 -36 28 -29 48 4 10 2 14 -8 10 -8 -3 -21 1 -28 10 -18
21 -33 19 -21 -4 6 -10 7 -21 4 -25 -3 -3 1 -6 10 -6 9 0 18 -4 21 -8 11 -19
-38 -4 -55 16 -9 12 -22 22 -28 22 -23 0 -10 18 22 28 l32 11 -34 -5 -34 -6 7
128 c19 369 70 654 172 966 425 1302 1577 2244 2939 2403 195 22 211 23 470
20 145 -2 287 -10 360 -20z m-3815 -3610 c10 -13 9 -15 -11 -14 -13 0 -18 3
-11 6 6 2 10 9 6 14 -9 15 2 10 16 -6z m507 -358 c0 -16 -29 -16 -49 0 -7 6
-24 13 -38 16 -25 4 -25 4 3 6 15 0 27 6 27 11 0 6 12 4 28 -4 16 -8 29 -21
29 -29z m72 -396 c8 -5 9 -11 3 -15 -5 -3 -15 1 -22 9 -14 16 -3 20 19 6z m1
-55 c0 -3 -4 -8 -10 -11 -5 -3 -10 -1 -10 4 0 6 5 11 10 11 6 0 10 -2 10 -4z"/>
<path d="M4669 11192 c8 -106 -44 -218 -150 -321 -148 -143 -391 -254 -561
-255 -43 -1 -78 -4 -78 -7 0 -17 44 -42 73 -42 17 0 79 17 136 38 60 21 130
39 165 42 93 7 98 9 194 73 106 71 184 152 231 240 55 102 54 222 -1 267 -10
9 -12 2 -9 -35z"/>
<path d="M7911 10674 c0 -11 3 -14 6 -6 3 7 2 16 -1 19 -3 4 -6 -2 -5 -13z"/>
<path d="M7863 10585 c-3 -9 -3 -18 -1 -21 3 -3 8 4 11 16 6 23 -1 27 -10 5z"/>
<path d="M7840 10510 c0 -16 -4 -30 -10 -30 -5 0 -10 -7 -10 -15 0 -18 -16
-20 -23 -2 -3 6 -6 -11 -6 -39 -1 -49 0 -52 27 -56 26 -4 27 -2 24 32 -2 20 1
59 6 88 5 29 5 52 1 52 -5 0 -9 -13 -9 -30z m-20 -100 c0 -5 -4 -10 -10 -10
-5 0 -10 5 -10 10 0 6 5 10 10 10 6 0 10 -4 10 -10z"/>
<path d="M4731 10425 c12 -19 25 -35 30 -35 6 0 -2 16 -17 35 -14 19 -28 35
-30 35 -2 0 6 -16 17 -35z"/>
<path d="M5810 10383 c-253 -9 -726 -51 -951 -84 l-76 -11 8 -46 c4 -26 3
-117 -2 -202 -4 -85 -8 -196 -9 -246 l0 -91 -101 -8 -101 -7 23 -24 c21 -22
30 -24 125 -24 l102 0 8 158 c4 86 8 221 8 298 l1 141 95 12 c603 74 1089 99
1611 82 446 -15 573 -25 1093 -87 l58 -7 -23 -19 c-16 -13 -20 -21 -11 -25 17
-7 15 -58 -3 -73 -17 -14 -21 -45 -5 -35 6 3 10 2 10 -4 0 -5 -4 -13 -10 -16
-5 -3 -10 -15 -10 -26 0 -10 -9 -24 -20 -31 -11 -7 -20 -20 -20 -28 0 -10 -3
-11 -8 -3 -5 8 -14 4 -30 -14 -16 -18 -18 -24 -6 -19 14 5 16 1 10 -26 -3 -18
-13 -38 -22 -45 -9 -6 -13 -16 -9 -22 3 -6 2 -11 -3 -11 -9 0 -21 -51 -23 -92
0 -9 -8 -18 -18 -21 -10 -2 -21 -14 -24 -27 -5 -18 -2 -21 12 -17 26 6 16 -30
-10 -38 -10 -4 -19 -12 -19 -19 0 -8 -44 -18 -132 -30 -242 -32 -489 -78 -736
-137 -104 -24 -135 -35 -143 -51 -11 -20 -9 -21 20 -15 37 8 36 4 -16 -60
l-34 -43 31 6 c25 6 29 4 24 -10 -6 -14 -1 -16 37 -10 24 3 50 7 57 10 15 4
16 -8 1 -23 -8 -8 7 -20 53 -42 156 -77 270 -219 298 -369 37 -203 -105 -374
-367 -443 -57 -15 -110 -21 -198 -21 -152 -1 -244 19 -357 75 -73 36 -84 39
-65 19 36 -39 147 -99 222 -120 50 -15 114 -22 227 -26 179 -6 261 8 378 67
60 29 155 109 176 148 5 9 22 19 39 23 29 7 29 7 11 -13 -11 -12 -15 -21 -11
-21 5 0 94 84 199 188 291 286 1110 1072 1164 1117 18 15 32 29 30 30 -6 6
-268 36 -373 43 l-110 7 -13 160 c-7 88 -14 165 -16 171 -2 6 -26 14 -53 18
-436 60 -716 87 -1092 106 -182 9 -700 11 -901 3z"/>
<path d="M7597 10063 c-11 -10 -8 -53 3 -53 6 0 10 14 10 30 0 31 -2 35 -13
23z"/>
<path d="M8350 9693 c-448 -426 -1510 -1462 -1510 -1472 0 -4 16 -15 36 -24
l36 -18 124 121 c69 66 132 120 141 120 12 0 13 -3 4 -14 -10 -11 -9 -15 5
-18 14 -3 13 -8 -12 -38 l-28 -35 27 24 c32 29 36 15 6 -23 -26 -33 -10 -34
29 -1 35 29 84 36 61 8 -13 -15 -11 -15 26 -9 39 8 39 7 22 -12 -17 -19 -17
-19 8 -14 20 3 24 1 19 -12 -5 -14 -1 -15 32 -10 34 5 37 4 25 -10 -11 -14
-11 -16 4 -16 14 0 15 -3 5 -15 -10 -12 -9 -15 5 -15 14 0 15 -3 5 -15 -20
-25 9 -19 39 8 14 12 19 14 12 5 -11 -14 -11 -18 -1 -18 9 0 7 -7 -5 -20 -10
-11 -15 -20 -10 -20 4 0 2 -7 -5 -15 -10 -12 -9 -15 5 -15 15 0 16 -2 4 -17
-13 -16 -12 -17 3 -4 10 7 15 17 12 22 -3 5 5 9 17 9 18 0 19 -2 9 -15 -10
-12 -9 -15 5 -15 12 0 15 -5 11 -16 -7 -17 -11 -17 98 2 34 6 38 5 33 -10 -4
-11 -1 -16 10 -16 13 0 13 -3 3 -15 -10 -12 -10 -15 0 -15 7 0 10 -7 6 -15 -3
-8 0 -15 6 -15 8 0 9 -3 2 -10 -10 -10 -211 -35 -381 -46 -81 -5 -106 -4 -119
7 -10 8 2 -14 26 -49 58 -86 99 -196 110 -295 5 -45 11 -180 14 -299 l6 -218
-203 -2 -203 -3 631 -619 c348 -341 634 -620 637 -620 3 -1 45 28 94 63 113
80 292 170 420 211 139 45 140 45 152 78 l10 30 -91 -44 c-199 -95 -348 -100
-421 -14 -33 40 -40 68 -33 140 8 90 64 187 167 291 80 81 210 170 267 185 31
8 37 65 28 253 -5 86 -8 171 -8 189 1 17 -2 32 -6 32 -9 0 -31 188 -42 350 -4
69 -11 141 -14 161 l-7 36 174 6 c95 4 215 7 266 7 l94 0 -6 -27 c-3 -16 -14
-77 -26 -138 -45 -236 -123 -492 -216 -712 -24 -57 -44 -105 -44 -108 0 -3 30
-5 67 -3 77 3 62 -21 118 198 110 440 159 843 158 1315 -1 329 -18 580 -58
835 -24 156 -88 471 -105 514 -8 21 -29 29 -197 70 -177 43 -381 86 -407 86
-6 0 -86 -71 -176 -157z m770 -170 c42 -137 96 -381 120 -553 19 -140 41 -371
35 -378 -2 -2 -169 -58 -372 -124 -202 -66 -427 -139 -500 -163 l-132 -43 -5
27 c-3 14 -13 69 -21 121 -9 52 -30 151 -47 219 l-31 124 39 35 c21 20 167
158 324 307 313 298 554 525 557 525 1 0 16 -44 33 -97z m-1870 -1126 c0 -2
-10 -12 -22 -23 l-23 -19 19 23 c18 21 26 27 26 19z m150 -101 c0 -2 -8 -10
-17 -17 -16 -13 -17 -12 -4 4 13 16 21 21 21 13z m316 -301 c-21 -16 -32 -13
-21 4 3 6 14 11 23 11 15 -1 15 -2 -2 -15z"/>
<path d="M4200 9664 c-209 -22 -355 -46 -362 -58 -11 -17 -83 -321 -122 -516
-64 -316 -107 -626 -138 -980 -19 -221 -16 -833 6 -1055 9 -99 19 -187 21
-195 3 -8 33 -25 68 -38 186 -66 380 -255 439 -426 23 -69 22 -113 -4 -166
-42 -83 -137 -107 -278 -71 -46 11 -85 20 -86 18 -9 -9 21 -27 93 -56 45 -18
124 -57 174 -86 l93 -53 80 51 c152 95 381 251 626 425 246 176 812 593 840
619 13 12 -7 14 -143 11 l-158 -3 6 265 c7 282 17 354 61 449 13 30 22 56 20
59 -11 11 -401 -47 -641 -94 -152 -30 -398 -90 -540 -133 -92 -27 -101 -28
-117 -14 -10 9 -18 22 -18 29 0 7 -3 14 -7 17 -5 2 -1 2 7 -1 8 -2 26 -6 40
-9 l25 -4 -25 15 -25 15 25 1 25 1 -25 14 c-22 13 -23 14 -5 15 20 1 20 1 1
15 -20 15 -20 15 0 15 19 1 19 1 0 15 -11 8 -15 15 -9 15 7 0 15 -4 18 -10 3
-5 16 -10 28 -10 22 1 22 1 3 15 -19 15 -19 15 3 15 19 0 21 3 12 13 -14 18
-4 27 28 27 l26 1 -24 13 -24 13 32 5 c18 3 40 -1 52 -10 11 -7 27 -11 36 -8
13 5 9 12 -18 33 -19 14 -26 23 -16 19 47 -17 48 -15 7 8 -39 22 -42 25 -20
26 l25 1 -25 15 -25 15 30 -5 c17 -2 41 -7 55 -10 14 -3 6 3 -18 15 -36 17
-41 23 -31 35 9 11 9 14 0 14 -7 0 -10 4 -7 9 3 5 17 9 31 9 32 0 44 10 25 22
-12 7 -11 10 4 16 18 7 18 8 0 21 -17 13 -17 13 1 13 18 0 18 1 -1 15 -18 14
-18 14 8 15 14 0 34 3 42 6 15 6 15 8 -1 20 -17 12 -16 13 7 14 l25 1 -25 14
-25 14 30 1 c29 1 29 1 -15 25 -36 19 -42 25 -27 30 9 4 30 4 45 1 15 -4 41
-9 57 -12 27 -4 25 -2 -15 20 -37 20 -42 26 -27 31 17 7 17 8 0 21 -16 12 -15
13 12 14 l30 1 -25 14 c-24 13 -24 14 29 21 l54 7 -44 23 c-41 22 -42 24 -21
30 l23 7 -28 17 c-28 17 -28 17 -87 -29 -220 -172 -509 -452 -684 -663 -35
-44 -66 -77 -68 -75 -6 6 15 375 32 557 36 391 98 756 200 1182 31 127 38 147
57 152 35 8 315 44 402 51 44 3 95 8 114 11 l33 5 -23 25 c-26 28 -48 29 -239
8z m60 -1764 c8 -5 11 -10 5 -10 -5 0 -17 5 -25 10 -8 5 -10 10 -5 10 6 0 17
-5 25 -10z"/>
<path d="M3645 9583 c-165 -34 -345 -75 -416 -94 -73 -19 -77 -22 -87 -57 -6
-20 -10 -37 -9 -38 1 -2 50 10 107 27 110 30 407 99 431 99 8 0 20 4 27 8 13
9 35 73 24 71 -4 -1 -38 -8 -77 -16z"/>
<path d="M6404 9410 c-30 -12 -40 -30 -16 -30 10 0 27 9 37 20 19 21 13 24
-21 10z"/>
<path d="M6305 9380 c-3 -5 -2 -10 4 -10 5 0 13 5 16 10 3 6 2 10 -4 10 -5 0
-13 -4 -16 -10z"/>
<path d="M4475 8491 c-8 -14 28 -31 62 -31 l28 1 -35 19 c-41 22 -47 23 -55
11z"/>
<path d="M3118 8100 c62 -76 70 -82 90 -70 16 11 16 11 0 6 -10 -3 -20 -1 -23
4 -4 6 -1 10 6 10 7 0 5 8 -6 20 -10 11 -26 20 -36 20 -19 0 -44 34 -35 48 2
4 -4 8 -14 8 -16 0 -13 -8 18 -46z"/>
<path d="M5935 7091 l-80 -6 -200 -151 c-548 -413 -1070 -784 -1340 -954 -55
-35 -102 -65 -105 -67 -2 -2 11 -16 30 -30 67 -51 242 -229 296 -300 67 -88
124 -194 159 -294 l27 -76 142 -42 c266 -78 580 -135 876 -161 177 -15 622
-12 811 5 365 34 714 107 1071 221 l138 45 33 73 c19 40 57 106 84 147 58 84
186 234 208 243 8 3 15 9 15 15 0 5 -219 224 -487 487 -269 263 -573 561 -676
663 l-189 186 -366 1 c-202 1 -403 -1 -447 -5z"/>
</g>
</svg>
